<?xml version="1.0" standalone="no"?>
<!DOCTYPE svg PUBLIC "-//W3C//DTD SVG 20010904//EN"
 "http://www.w3.org/TR/2001/REC-SVG-20010904/DTD/svg10.dtd">
<svg version="1.0" xmlns="http://www.w3.org/2000/svg"
 width="1024.000000pt" height="1024.000000pt" viewBox="0 0 1024.000000 1024.000000"
 preserveAspectRatio="xMidYMid meet">

<g transform="translate(0.000000,1024.000000) scale(0.100000,-0.100000)"
fill="#000000" stroke="none">
<path d="M4275 9193 c-33 -2 -62 -7 -65 -12 -3 -4 -48 -13 -100 -19 -109 -15
-243 -43 -250 -53 -3 -4 -25 -12 -50 -19 -67 -18 -134 -41 -140 -49 -3 -4 -38
-20 -77 -35 -40 -16 -73 -33 -73 -37 0 -4 -20 -17 -44 -28 -24 -12 -57 -33
-72 -46 -16 -14 -35 -25 -41 -25 -7 0 -20 -11 -29 -25 -9 -14 -21 -25 -28 -25
-24 0 -217 -214 -245 -271 -7 -16 -17 -29 -22 -29 -4 0 -17 -20 -28 -45 -11
-25 -24 -45 -28 -45 -5 0 -19 -28 -33 -62 -13 -35 -27 -65 -31 -68 -8 -6 -59
-158 -59 -176 0 -8 -4 -14 -8 -14 -8 0 -36 -131 -48 -230 -4 -30 -12 -58 -18
-62 -7 -4 -12 -149 -14 -437 l-4 -431 -889 0 -889 0 0 -575 0 -575 890 0 890
0 0 -2460 0 -2460 790 0 790 0 0 2460 0 2460 1110 0 1110 0 0 -2460 0 -2460
785 0 785 0 0 3035 0 3035 -1895 0 -1895 0 0 263 c0 258 12 429 31 435 5 2 9
11 9 20 0 27 30 106 44 117 7 6 16 20 20 32 12 36 107 127 161 153 28 13 53
27 56 32 3 4 54 15 115 24 96 15 139 15 369 5 143 -7 263 -15 267 -17 4 -3 8
-2 8 3 2 181 0 1097 -2 1098 -5 5 -279 44 -358 51 -41 4 -78 12 -82 17 -7 11
-589 19 -713 10z"/>
</g>
</svg>
