<svg role="img" viewBox="0 0 24 24" fill="currentColor" xmlns="http://www.w3.org/2000/svg" width="32" height="32">
  <title>GitHub icon</title>
  <path d="M12 0.2975C5.3725 0.2975 0 5.6725 0 12.2975C0 17.6975 3.43875 22.2975 8.205 23.8725C8.805 23.9725 9.025 23.5975 9.025 23.2725C9.025 22.9825 9.015 22.1975 9.01 21.1975C5.6725 21.8975 4.9675 19.5225 4.9675 19.5225C4.4225 18.0975 3.6325 17.6975 3.6325 17.6975C2.545 16.8975 3.7175 16.9125 3.7175 16.9125C4.9225 17.0075 5.555 18.1725 5.555 18.1725C6.6325 20.0525 8.4025 19.4725 9.0675 19.1575C9.1675 18.3675 9.4825 17.8225 9.8375 17.4975C7.1725 17.1725 4.3725 16.1475 4.3725 11.5175C4.3725 10.1975 4.825 9.1175 5.5925 8.2725C5.4725 7.9475 5.0775 6.7125 5.6925 5.0475C5.6925 5.0475 6.7075 4.6975 9.0125 6.2225C9.9725 5.9475 11.0025 5.8175 12.0325 5.8125C13.0625 5.8175 14.0925 5.9475 15.0525 6.2225C17.3575 4.6975 18.3725 5.0475 18.3725 5.0475C18.9875 6.7125 18.5925 7.9475 18.4725 8.2725C19.2425 9.1175 19.6925 10.1975 19.6925 11.5175C19.6925 16.1625 16.8875 17.1675 14.215 17.4925C14.65 17.8575 15.0325 18.6075 15.0325 19.7275C15.0325 21.3525 15.0225 22.9275 15.0225 23.2675C15.0225 23.5925 15.2375 23.9725 15.8475 23.8675C20.6125 22.2925 24.0475 17.6925 24.0475 12.2925C24.0475 5.6725 18.675 0.2975 12 0.2975Z"/>
</svg>
