<svg role="img" viewBox="0 0 24 24" fill="currentColor" xmlns="http://www.w3.org/2000/svg" width="32" height="32">
  <title>X icon</title>
  <path d="M23.954 4.569a10.005 10.005 0 0 1-2.825.775 4.958 4.958 0 0 0 2.163-2.723 10.034 10.034 0 0 1-3.127 1.195 4.922 4.922 0 0 0-8.384 4.482A13.978 13.978 0 0 1 1.671 3.149 4.822 4.822 0 0 0 3.195 9.723a4.904 4.904 0 0 1-2.229-.616c-.054 2.28 1.581 4.415 3.949 4.89a4.996 4.996 0 0 1-2.224.085 4.937 4.937 0 0 0 4.604 3.417 9.867 9.867 0 0 1-6.102 2.104c-.397 0-.79-.023-1.175-.069a13.945 13.945 0 0 0 7.557 2.212c9.054 0 14.002-7.496 14.002-13.986 0-.21 0-.423-.015-.633a9.936 9.936 0 0 0 2.457-2.548l-.047-.02z"/>
</svg>
